# Blender v2.78 (sub 0) OBJ File: 'Chess_Pieces.blend'
# www.blender.org
v 0.191342 0.000000 -0.461940
v 0.191342 0.250000 -0.461940
v 0.353553 0.000000 -0.353553
v 0.353553 0.250000 -0.353553
v 0.461940 0.000000 -0.191342
v 0.461940 0.250000 -0.191342
v 0.500000 0.000000 0.000000
v 0.500000 0.250000 0.000000
v 0.461940 0.000000 0.191342
v 0.461940 0.250000 0.191342
v 0.353553 0.000000 0.353553
v 0.353553 0.250000 0.353553
v 0.191342 0.000000 0.461940
v 0.191342 0.250000 0.461940
v 0.170542 0.740178 0.170542
v 0.092296 0.740178 -0.222823
v 0.222823 0.740178 -0.092296
v 0.222823 0.740178 0.092296
v 0.092296 0.740178 0.222823
v 0.170542 0.740178 -0.170542
v 0.095671 0.250000 -0.230970
v 0.176777 0.250000 -0.176777
v 0.230970 0.250000 -0.095671
v 0.250000 0.250000 0.000000
v 0.230970 0.250000 0.095671
v 0.176777 0.250000 0.176777
v 0.095671 0.250000 0.230970
v 0.023918 0.903571 -0.057742
v 0.044194 0.903571 -0.044194
v 0.057742 0.903571 -0.023918
v 0.062500 0.903571 0.000000
v 0.057742 0.903571 0.023918
v 0.044194 0.903571 0.044194
v 0.023918 0.903571 0.057742
v 0.203986 0.576786 -0.203986
v 0.266521 0.576786 -0.110396
v 0.110396 0.576786 -0.266521
v 0.110396 0.576786 0.266521
v 0.266521 0.576786 0.110396
v 0.203986 0.576786 0.203986
v 0.288480 0.576786 0.000000
v 0.023918 1.005115 -0.057742
v 0.044194 1.005115 -0.044194
v 0.057742 1.005115 -0.023918
v 0.062500 1.005115 0.000000
v 0.057742 1.005115 0.023918
v 0.044194 1.005115 0.044194
v 0.023918 1.005115 0.057742
v 0.032542 0.937419 0.078564
v 0.032542 0.971267 0.078564
v 0.078564 0.937419 0.032542
v 0.078564 0.971267 0.032542
v 0.060130 0.971267 0.060130
v 0.060130 0.937419 0.060130
v 0.078564 0.937419 -0.032542
v 0.078564 0.971267 -0.032542
v 0.085037 0.971267 0.000000
v 0.085037 0.937419 0.000000
v 0.032542 0.937419 -0.078564
v 0.032542 0.971267 -0.078564
v 0.060130 0.971267 -0.060130
v 0.060130 0.937419 -0.060130
v 0.241182 0.740178 0.000000
v 0.000000 0.000000 -0.500000
v 0.000000 0.250000 -0.500000
v -0.191342 0.000000 -0.461940
v -0.191342 0.250000 -0.461940
v -0.353553 0.000000 -0.353553
v -0.353553 0.250000 -0.353553
v -0.461940 0.000000 -0.191342
v -0.461940 0.250000 -0.191342
v -0.500000 0.000000 0.000000
v -0.500000 0.250000 0.000000
v -0.461940 0.000000 0.191342
v -0.461940 0.250000 0.191342
v -0.353553 0.000000 0.353553
v -0.353553 0.250000 0.353553
v -0.191342 0.000000 0.461940
v -0.191342 0.250000 0.461940
v 0.000000 0.000000 0.500000
v 0.000000 0.250000 0.500000
v -0.170542 0.740178 0.170542
v 0.000000 0.740178 0.241182
v -0.092296 0.740178 -0.222823
v -0.222823 0.740178 -0.092296
v -0.222823 0.740178 0.092296
v -0.092296 0.740178 0.222823
v 0.000000 0.740178 -0.241182
v 0.000000 0.000000 0.000000
v -0.170542 0.740178 -0.170542
v 0.000000 0.250000 -0.250000
v -0.095671 0.250000 -0.230970
v -0.176777 0.250000 -0.176777
v -0.230970 0.250000 -0.095671
v -0.250000 0.250000 0.000000
v -0.230970 0.250000 0.095671
v -0.176777 0.250000 0.176777
v -0.095671 0.250000 0.230970
v 0.000000 0.250000 0.250000
v 0.000000 0.903571 -0.062500
v -0.023918 0.903571 -0.057742
v -0.044194 0.903571 -0.044194
v -0.057742 0.903571 -0.023918
v -0.062500 0.903571 0.000000
v -0.057742 0.903571 0.023918
v -0.044194 0.903571 0.044194
v -0.023918 0.903571 0.057742
v 0.000000 0.903571 0.062500
v -0.203986 0.576786 -0.203986
v -0.266521 0.576786 -0.110396
v 0.000000 0.576786 -0.288480
v -0.110396 0.576786 -0.266521
v -0.110396 0.576786 0.266521
v 0.000000 0.576786 0.288480
v -0.266521 0.576786 0.110396
v -0.203986 0.576786 0.203986
v -0.288480 0.576786 0.000000
v 0.000000 1.005115 -0.062500
v -0.023918 1.005115 -0.057742
v -0.044194 1.005115 -0.044194
v -0.057742 1.005115 -0.023918
v -0.062500 1.005115 0.000000
v -0.057742 1.005115 0.023918
v -0.044194 1.005115 0.044194
v -0.023918 1.005115 0.057742
v 0.000000 1.005115 0.062500
v -0.032542 0.937419 0.078564
v -0.032542 0.971267 0.078564
v 0.000000 0.971267 0.085037
v 0.000000 0.937419 0.085037
v -0.078564 0.937419 0.032542
v -0.078564 0.971267 0.032542
v -0.060130 0.971267 0.060130
v -0.060130 0.937419 0.060130
v -0.078564 0.937419 -0.032542
v -0.078564 0.971267 -0.032542
v -0.085037 0.971267 0.000000
v -0.085037 0.937419 0.000000
v -0.032542 0.937419 -0.078564
v -0.032542 0.971267 -0.078564
v -0.060130 0.971267 -0.060130
v -0.060130 0.937419 -0.060130
v 0.000000 0.937419 -0.085037
v 0.000000 0.971267 -0.085037
v -0.241182 0.740178 0.000000
v 0.000000 1.030465 0.000000
vn 0.1951 0.0000 -0.9808
vn 0.5556 0.0000 -0.8315
vn 0.8315 0.0000 -0.5556
vn 0.9808 0.0000 -0.1951
vn 0.9808 0.0000 0.1951
vn 0.8315 0.0000 0.5556
vn 0.5556 0.0000 0.8315
vn 0.1951 0.0000 0.9808
vn 0.0000 -1.0000 0.0000
vn 0.0000 1.0000 0.0000
vn 0.5670 0.7314 -0.3789
vn 0.1330 0.7314 -0.6688
vn 0.1330 0.7314 0.6688
vn 0.5670 0.7314 0.3789
vn 0.6688 0.7314 -0.1330
vn 0.3789 0.7314 -0.5670
vn 0.3789 0.7314 0.5670
vn 0.6688 0.7314 0.1330
vn 0.9743 -0.1147 0.1938
vn 0.5519 -0.1147 0.8260
vn 0.5519 -0.1147 -0.8260
vn 0.9743 -0.1147 -0.1938
vn 0.8260 -0.1147 0.5519
vn 0.1938 -0.1147 0.9743
vn 0.1938 -0.1147 -0.9743
vn 0.8260 -0.1147 -0.5519
vn 0.1633 0.5468 0.8212
vn 0.6962 0.5468 0.4652
vn 0.8212 0.5468 -0.1633
vn 0.4652 0.5468 -0.6962
vn 0.4652 0.5468 0.6962
vn 0.8212 0.5468 0.1633
vn 0.6962 0.5468 -0.4652
vn 0.1633 0.5468 -0.8212
vn 0.1633 -0.5468 -0.8212
vn 0.6962 -0.5468 -0.4652
vn 0.8212 -0.5468 0.1633
vn 0.4652 -0.5468 0.6962
vn 0.4652 -0.5468 -0.6962
vn 0.8212 -0.5468 -0.1633
vn 0.6962 -0.5468 0.4652
vn 0.1633 -0.5468 0.8212
vn 0.2123 0.9241 0.3178
vn 0.3748 0.9241 0.0746
vn 0.3178 0.9241 -0.2123
vn 0.0746 0.9241 -0.3748
vn 0.0746 0.9241 0.3748
vn 0.3178 0.9241 0.2123
vn 0.3748 0.9241 -0.0746
vn 0.2123 0.9241 -0.3178
vn 0.9435 0.2731 0.1877
vn 0.5344 0.2731 0.7999
vn 0.5344 0.2731 -0.7999
vn 0.9435 0.2731 -0.1877
vn 0.7999 0.2731 0.5344
vn 0.1877 0.2731 0.9435
vn 0.1877 0.2731 -0.9435
vn 0.7999 0.2731 -0.5344
vn -0.1951 0.0000 -0.9808
vn -0.5556 0.0000 -0.8315
vn -0.8315 0.0000 -0.5556
vn -0.9808 0.0000 -0.1951
vn -0.9808 0.0000 0.1951
vn -0.8315 0.0000 0.5556
vn -0.5556 0.0000 0.8315
vn -0.1951 0.0000 0.9808
vn -0.5670 0.7314 -0.3789
vn -0.1330 0.7314 -0.6688
vn -0.1330 0.7314 0.6688
vn -0.5670 0.7314 0.3789
vn -0.6688 0.7314 -0.1330
vn -0.3789 0.7314 -0.5670
vn -0.3789 0.7314 0.5670
vn -0.6688 0.7314 0.1330
vn -0.9743 -0.1147 0.1938
vn -0.5519 -0.1147 0.8260
vn -0.5519 -0.1147 -0.8260
vn -0.9743 -0.1147 -0.1938
vn -0.8260 -0.1147 0.5519
vn -0.1938 -0.1147 0.9743
vn -0.1938 -0.1147 -0.9743
vn -0.8260 -0.1147 -0.5519
vn -0.1633 0.5468 0.8212
vn -0.6962 0.5468 0.4652
vn -0.8212 0.5468 -0.1633
vn -0.4652 0.5468 -0.6962
vn -0.4652 0.5468 0.6962
vn -0.8212 0.5468 0.1633
vn -0.6962 0.5468 -0.4652
vn -0.1633 0.5468 -0.8212
vn -0.1633 -0.5468 -0.8212
vn -0.6962 -0.5468 -0.4652
vn -0.8212 -0.5468 0.1633
vn -0.4652 -0.5468 0.6962
vn -0.4652 -0.5468 -0.6962
vn -0.8212 -0.5468 -0.1633
vn -0.6962 -0.5468 0.4652
vn -0.1633 -0.5468 0.8212
vn -0.2123 0.9241 0.3178
vn -0.3748 0.9241 0.0746
vn -0.3178 0.9241 -0.2123
vn -0.0746 0.9241 -0.3748
vn -0.0746 0.9241 0.3748
vn -0.3178 0.9241 0.2123
vn -0.3748 0.9241 -0.0746
vn -0.2123 0.9241 -0.3178
vn -0.9435 0.2731 0.1877
vn -0.5344 0.2731 0.7999
vn -0.5344 0.2731 -0.7999
vn -0.9435 0.2731 -0.1877
vn -0.7999 0.2731 0.5344
vn -0.1877 0.2731 0.9435
vn -0.1877 0.2731 -0.9435
vn -0.7999 0.2731 -0.5344
s off
f 65//1 1//1 64//1
f 2//2 3//2 1//2
f 4//3 5//3 3//3
f 6//4 7//4 5//4
f 8//5 9//5 7//5
f 10//6 11//6 9//6
f 12//7 13//7 11//7
f 14//8 80//8 13//8
f 7//9 9//9 89//9
f 13//9 80//9 89//9
f 64//9 1//9 89//9
f 3//9 5//9 89//9
f 9//9 11//9 89//9
f 5//9 7//9 89//9
f 11//9 13//9 89//9
f 1//9 3//9 89//9
f 6//10 24//10 8//10
f 14//10 26//10 27//10
f 2//10 22//10 4//10
f 8//10 25//10 10//10
f 81//10 27//10 99//10
f 65//10 21//10 2//10
f 4//10 23//10 6//10
f 10//10 26//10 12//10
f 20//11 30//11 17//11
f 88//12 28//12 16//12
f 83//13 34//13 108//13
f 18//14 33//14 15//14
f 17//15 31//15 63//15
f 16//16 29//16 20//16
f 15//17 34//17 19//17
f 63//18 32//18 18//18
f 24//19 39//19 25//19
f 26//20 38//20 27//20
f 21//21 35//21 22//21
f 24//22 36//22 41//22
f 26//23 39//23 40//23
f 27//24 114//24 99//24
f 21//25 111//25 37//25
f 22//26 36//26 23//26
f 50//27 126//27 129//27
f 52//28 47//28 53//28
f 56//29 45//29 57//29
f 60//30 43//30 61//30
f 50//31 47//31 48//31
f 52//32 45//32 46//32
f 56//33 43//33 44//33
f 144//34 42//34 60//34
f 100//35 59//35 28//35
f 143//1 60//1 59//1
f 29//36 55//36 30//36
f 62//3 56//3 55//3
f 32//37 58//37 51//37
f 58//5 52//5 51//5
f 34//38 54//38 49//38
f 54//7 50//7 49//7
f 28//39 62//39 29//39
f 62//2 60//2 61//2
f 30//40 58//40 31//40
f 58//4 56//4 57//4
f 33//41 51//41 54//41
f 54//6 52//6 53//6
f 34//42 130//42 108//42
f 130//8 50//8 129//8
f 48//43 47//43 146//43
f 46//44 45//44 146//44
f 44//45 43//45 146//45
f 42//46 118//46 146//46
f 126//47 48//47 146//47
f 47//48 46//48 146//48
f 45//49 44//49 146//49
f 43//50 42//50 146//50
f 39//51 63//51 18//51
f 40//52 19//52 38//52
f 37//53 20//53 35//53
f 41//54 17//54 63//54
f 39//55 15//55 40//55
f 38//56 83//56 114//56
f 37//57 88//57 16//57
f 35//58 17//58 36//58
f 66//59 65//59 64//59
f 68//60 67//60 66//60
f 70//61 69//61 68//61
f 72//62 71//62 70//62
f 74//63 73//63 72//63
f 76//64 75//64 74//64
f 78//65 77//65 76//65
f 80//66 79//66 78//66
f 72//9 89//9 74//9
f 78//9 89//9 80//9
f 64//9 89//9 66//9
f 68//9 89//9 70//9
f 74//9 89//9 76//9
f 70//9 89//9 72//9
f 76//9 89//9 78//9
f 66//9 89//9 68//9
f 95//10 71//10 73//10
f 98//10 77//10 79//10
f 93//10 67//10 69//10
f 96//10 73//10 75//10
f 99//10 79//10 81//10
f 92//10 65//10 67//10
f 94//10 69//10 71//10
f 77//10 96//10 75//10
f 103//67 90//67 85//67
f 101//68 88//68 84//68
f 108//69 87//69 83//69
f 106//70 86//70 82//70
f 104//71 85//71 145//71
f 90//72 101//72 84//72
f 87//73 106//73 82//73
f 86//74 104//74 145//74
f 115//75 95//75 96//75
f 113//76 97//76 98//76
f 109//77 92//77 93//77
f 117//78 94//78 95//78
f 97//79 115//79 96//79
f 114//80 98//80 99//80
f 112//81 91//81 92//81
f 110//82 93//82 94//82
f 126//83 128//83 129//83
f 124//84 132//84 133//84
f 122//85 136//85 137//85
f 120//86 140//86 141//86
f 125//87 133//87 128//87
f 132//88 122//88 137//88
f 136//89 120//89 141//89
f 140//90 118//90 144//90
f 139//91 100//91 101//91
f 140//59 143//59 139//59
f 135//92 102//92 103//92
f 136//61 142//61 135//61
f 105//93 138//93 104//93
f 132//63 138//63 131//63
f 107//94 134//94 106//94
f 128//65 134//65 127//65
f 142//95 101//95 102//95
f 142//60 140//60 139//60
f 138//96 103//96 104//96
f 138//62 136//62 135//62
f 106//97 131//97 105//97
f 134//64 132//64 131//64
f 108//98 127//98 107//98
f 130//66 128//66 127//66
f 125//99 146//99 124//99
f 123//100 146//100 122//100
f 121//101 146//101 120//101
f 119//102 146//102 118//102
f 126//103 146//103 125//103
f 124//104 146//104 123//104
f 122//105 146//105 121//105
f 120//106 146//106 119//106
f 115//107 145//107 117//107
f 87//108 116//108 113//108
f 90//109 112//109 109//109
f 145//110 110//110 117//110
f 82//111 115//111 116//111
f 83//112 113//112 114//112
f 112//113 88//113 111//113
f 85//114 109//114 110//114
f 65//1 2//1 1//1
f 2//2 4//2 3//2
f 4//3 6//3 5//3
f 6//4 8//4 7//4
f 8//5 10//5 9//5
f 10//6 12//6 11//6
f 12//7 14//7 13//7
f 14//8 81//8 80//8
f 6//10 23//10 24//10
f 14//10 12//10 26//10
f 2//10 21//10 22//10
f 8//10 24//10 25//10
f 81//10 14//10 27//10
f 65//10 91//10 21//10
f 4//10 22//10 23//10
f 10//10 25//10 26//10
f 20//11 29//11 30//11
f 88//12 100//12 28//12
f 83//13 19//13 34//13
f 18//14 32//14 33//14
f 17//15 30//15 31//15
f 16//16 28//16 29//16
f 15//17 33//17 34//17
f 63//18 31//18 32//18
f 24//19 41//19 39//19
f 26//20 40//20 38//20
f 21//21 37//21 35//21
f 24//22 23//22 36//22
f 26//23 25//23 39//23
f 27//24 38//24 114//24
f 21//25 91//25 111//25
f 22//26 35//26 36//26
f 50//27 48//27 126//27
f 52//28 46//28 47//28
f 56//29 44//29 45//29
f 60//30 42//30 43//30
f 50//31 53//31 47//31
f 52//32 57//32 45//32
f 56//33 61//33 43//33
f 144//34 118//34 42//34
f 100//35 143//35 59//35
f 143//1 144//1 60//1
f 29//36 62//36 55//36
f 62//3 61//3 56//3
f 32//37 31//37 58//37
f 58//5 57//5 52//5
f 34//38 33//38 54//38
f 54//7 53//7 50//7
f 28//39 59//39 62//39
f 62//2 59//2 60//2
f 30//40 55//40 58//40
f 58//4 55//4 56//4
f 33//41 32//41 51//41
f 54//6 51//6 52//6
f 34//42 49//42 130//42
f 130//8 49//8 50//8
f 39//51 41//51 63//51
f 40//52 15//52 19//52
f 37//53 16//53 20//53
f 41//54 36//54 17//54
f 39//55 18//55 15//55
f 38//56 19//56 83//56
f 37//57 111//57 88//57
f 35//58 20//58 17//58
f 66//59 67//59 65//59
f 68//60 69//60 67//60
f 70//61 71//61 69//61
f 72//62 73//62 71//62
f 74//63 75//63 73//63
f 76//64 77//64 75//64
f 78//65 79//65 77//65
f 80//66 81//66 79//66
f 95//10 94//10 71//10
f 98//10 97//10 77//10
f 93//10 92//10 67//10
f 96//10 95//10 73//10
f 99//10 98//10 79//10
f 92//10 91//10 65//10
f 94//10 93//10 69//10
f 77//10 97//10 96//10
f 103//67 102//67 90//67
f 101//68 100//68 88//68
f 108//69 107//69 87//69
f 106//70 105//70 86//70
f 104//71 103//71 85//71
f 90//72 102//72 101//72
f 87//73 107//73 106//73
f 86//74 105//74 104//74
f 115//75 117//75 95//75
f 113//76 116//76 97//76
f 109//77 112//77 92//77
f 117//78 110//78 94//78
f 97//79 116//79 115//79
f 114//80 113//80 98//80
f 112//81 111//81 91//81
f 110//82 109//82 93//82
f 126//83 125//83 128//83
f 124//84 123//84 132//84
f 122//85 121//85 136//85
f 120//86 119//86 140//86
f 125//87 124//87 133//87
f 132//88 123//88 122//88
f 136//89 121//89 120//89
f 140//90 119//90 118//90
f 139//91 143//91 100//91
f 140//59 144//59 143//59
f 135//92 142//92 102//92
f 136//61 141//61 142//61
f 105//93 131//93 138//93
f 132//63 137//63 138//63
f 107//94 127//94 134//94
f 128//65 133//65 134//65
f 142//95 139//95 101//95
f 142//60 141//60 140//60
f 138//96 135//96 103//96
f 138//62 137//62 136//62
f 106//97 134//97 131//97
f 134//64 133//64 132//64
f 108//98 130//98 127//98
f 130//66 129//66 128//66
f 115//107 86//107 145//107
f 87//108 82//108 116//108
f 90//109 84//109 112//109
f 145//110 85//110 110//110
f 82//111 86//111 115//111
f 83//112 87//112 113//112
f 112//113 84//113 88//113
f 85//114 90//114 109//114
